<svg width="25" height="25" viewBox="0 0 25 25" fill="none" xmlns="http://www.w3.org/2000/svg">
<rect width="25" height="25" fill="white" fill-opacity="0.01"/>
<circle cx="12.5" cy="12.5" r="7.5" stroke="#424752"/>
<path d="M12.0068 13.498C12.0101 13.1855 12.0378 12.93 12.0898 12.7314C12.1452 12.5296 12.2331 12.3457 12.3535 12.1797C12.4772 12.0137 12.6416 11.8249 12.8467 11.6133C12.9964 11.4603 13.1348 11.3171 13.2617 11.1836C13.3887 11.0469 13.4912 10.9004 13.5693 10.7441C13.6475 10.5879 13.6865 10.3975 13.6865 10.1729C13.6865 9.83431 13.597 9.56738 13.418 9.37207C13.2389 9.1735 12.9801 9.07422 12.6416 9.07422C12.3584 9.07422 12.1045 9.15397 11.8799 9.31348C11.6553 9.46973 11.543 9.71712 11.543 10.0557H10.6299C10.6364 9.68783 10.7275 9.37207 10.9033 9.1084C11.0824 8.84473 11.3232 8.6429 11.626 8.50293C11.9287 8.36296 12.2673 8.29297 12.6416 8.29297C13.2633 8.29297 13.7435 8.45898 14.082 8.79102C14.4238 9.12305 14.5947 9.57552 14.5947 10.1484C14.5947 10.4414 14.5361 10.7116 14.4189 10.959C14.3018 11.2031 14.1504 11.4326 13.9648 11.6475C13.7793 11.8623 13.5824 12.0674 13.374 12.2627C13.195 12.4255 13.0745 12.6126 13.0127 12.8242C12.9508 13.0326 12.9199 13.2572 12.9199 13.498H12.0068ZM11.9678 15.0459C11.9678 14.9027 12.0133 14.7806 12.1045 14.6797C12.1956 14.5788 12.3291 14.5283 12.5049 14.5283C12.6807 14.5283 12.8141 14.5788 12.9053 14.6797C12.9964 14.7806 13.042 14.9027 13.042 15.0459C13.042 15.1891 12.9964 15.3096 12.9053 15.4072C12.8141 15.5049 12.6807 15.5537 12.5049 15.5537C12.3291 15.5537 12.1956 15.5049 12.1045 15.4072C12.0133 15.3096 11.9678 15.1891 11.9678 15.0459Z" fill="#424752"/>
</svg>
